<?xml version="1.0" encoding="iso-8859-1"?>
<!-- Generator: Adobe Illustrator 19.0.0, SVG Export Plug-In . SVG Version: 6.00 Build 0)  -->
<svg xmlns="http://www.w3.org/2000/svg" xmlns:xlink="http://www.w3.org/1999/xlink" version="1.1" id="Capa_1" x="0px" y="0px" viewBox="0 0 512 512" style="enable-background:new 0 0 512 512;" xml:space="preserve" width="512px" height="512px">
<g>
	<g>
		<g>
			<rect x="240" y="128" width="32" height="64" fill="#0b13b0"/>
			<rect x="240" y="320" width="32" height="64" fill="#0b13b0"/>
			<rect x="240" width="32" height="32" fill="#0b13b0"/>
			<rect x="240" y="480" width="32" height="32" fill="#0b13b0"/>
			<rect x="240" y="64" width="32" height="32" fill="#0b13b0"/>
			<rect x="240" y="416" width="32" height="32" fill="#0b13b0"/>
			<rect x="124.137" y="140.112" transform="matrix(0.7071 0.7071 -0.7071 0.7071 156.1192 -64.6812)" width="64" height="32" fill="#0b13b0"/>
			<rect x="339.885" y="323.877" transform="matrix(0.7071 -0.7071 0.7071 0.7071 -147.4066 355.8816)" width="32" height="64" fill="#0b13b0"/>
			<rect x="38.302" y="38.304" transform="matrix(0.7071 0.7071 -0.7071 0.7071 54.3035 -22.4919)" width="32" height="32" fill="#0b13b0"/>
			<rect x="441.721" y="441.696" transform="matrix(-0.7071 -0.7071 0.7071 -0.7071 457.7386 1104.9939)" width="32" height="32" fill="#0b13b0"/>
			<rect x="83.556" y="83.552" transform="matrix(-0.7071 0.7071 -0.7071 -0.7071 240.3474 99.5489)" width="32" height="32" fill="#0b13b0"/>
			<rect x="396.444" y="396.448" transform="matrix(-0.7071 -0.7071 0.7071 -0.7071 412.4423 995.7349)" width="32" height="32" fill="#0b13b0"/>
			<rect x="128" y="240" width="64" height="32" fill="#0b13b0"/>
			<rect x="320" y="240" width="64" height="32" fill="#0b13b0"/>
			<rect y="240" width="32" height="32" fill="#0b13b0"/>
			<rect x="480" y="240" width="32" height="32" fill="#0b13b0"/>
			<rect x="64" y="240" width="32" height="32" fill="#0b13b0"/>
			<rect x="416" y="240" width="32" height="32" fill="#0b13b0"/>
			<rect x="140.12" y="323.887" transform="matrix(-0.7071 -0.7071 0.7071 -0.7071 14.864 717.9321)" width="32" height="64" fill="#0b13b0"/>
			<rect x="339.869" y="124.124" transform="matrix(0.7071 0.7071 -0.7071 0.7071 214.6273 -205.9096)" width="32" height="64" fill="#0b13b0"/>
			<rect x="38.308" y="441.702" transform="matrix(-0.7071 -0.7071 0.7071 -0.7071 -230.9351 819.7473)" width="32" height="32" fill="#0b13b0"/>
			<rect x="441.716" y="38.266" transform="matrix(0.7071 0.7071 -0.7071 0.7071 172.4343 -307.76)" width="32" height="32" fill="#0b13b0"/>
			<rect x="83.544" y="396.452" transform="matrix(-0.7071 -0.7071 0.7071 -0.7071 -121.7148 774.4879)" width="32" height="32" fill="#0b13b0"/>
			<rect x="396.456" y="83.548" transform="matrix(0.7071 0.7071 -0.7071 0.7071 191.1963 -262.4934)" width="32" height="32" fill="#0b13b0"/>
		</g>
	</g>
</g>
<g>
</g>
<g>
</g>
<g>
</g>
<g>
</g>
<g>
</g>
<g>
</g>
<g>
</g>
<g>
</g>
<g>
</g>
<g>
</g>
<g>
</g>
<g>
</g>
<g>
</g>
<g>
</g>
<g>
</g>
</svg>
